<?xml version="1.0" encoding="utf-8"?><svg xmlns="http://www.w3.org/2000/svg" xmlns:xlink="http://www.w3.org/1999/xlink"><symbol viewBox="0 0 175 70" id="download" xmlns="http://www.w3.org/2000/svg"><path d="M0 69.25h175V0H0v69.25z"/><path d="M9.25 69.25C3.93 69.25 0 65 0 59.54s3.9-9.76 9.33-9.76a9.51 9.51 0 0 1 7.19 3l-1.42 1.54a8 8 0 0 0-5.8-2.58c-4.08 0-7.14 3.36-7.14 7.75s3.08 7.8 7.14 7.8a8 8 0 0 0 6-2.72l1.37 1.37a9.53 9.53 0 0 1-7.38 3.31m15.36-13.03a4.86 4.86 0 0 0-4.84 5.15 5 5 0 0 0 4.89 5.18 4.88 4.88 0 0 0 4.87-5.13 5 5 0 0 0-4.92-5.2m0 12.1a6.92 6.92 0 1 1 6.94-6.95 6.88 6.88 0 0 1-6.94 6.95m12.05.93h-2.07V55.51h2.07v2.39a5.28 5.28 0 0 1 4.76-2.69c3.37 0 5.33 2.24 5.33 5.51v8.53h-2.07v-8c0-2.55-1.4-4.15-3.85-4.15a4.07 4.07 0 0 0-4.17 4.31zm14.04 0h-2.08V55.51h2.08v2.39a5.26 5.26 0 0 1 4.76-2.69c3.36 0 5.33 2.24 5.33 5.51v8.53h-2.07v-8c0-2.55-1.4-4.15-3.85-4.15a4.07 4.07 0 0 0-4.17 4.31zm22.8-8.59c-.2-2.41-1.59-4.51-4.22-4.51-2.31 0-4 1.92-4.31 4.51zm-3.86 5.94a5.48 5.48 0 0 0 4.17-1.87l1.23 1.1a6.83 6.83 0 0 1-5.46 2.49A6.6 6.6 0 0 1 63 61.4c0-3.84 2.69-6.92 6.36-6.92 3.92 0 6.17 3.13 6.17 7v.62H65a4.64 4.64 0 0 0 4.68 4.5zm15.43 1.72a6.92 6.92 0 1 1 0-13.84 7.18 7.18 0 0 1 5.5 2.36l-1.35 1.38a5.65 5.65 0 0 0-4.18-2 5 5 0 0 0-4.91 5.15 5 5 0 0 0 5 5.18 5.78 5.78 0 0 0 4.2-2l1.3 1.17a7.17 7.17 0 0 1-5.61 2.57m10.66-3.11c0 1.65.94 2.25 2.34 2.25a4.47 4.47 0 0 0 2-.47v1.72a5.42 5.42 0 0 1-2.5.57c-2.24 0-3.93-1.07-3.93-3.81v-8.13h-1.92v-1.77h1.94v-4.07h2.07v4.07h4.41v1.77h-4.41zm14.08-12.69h-4.74v8.23h4.63c3.11 0 5.15-1.66 5.15-4.14 0-2.7-2-4.09-5-4.09m-.19 10.16h-4.55v6.6h-2.12V50.53h7c4.23 0 7 2.25 7 6 0 4.06-3.38 6.15-7.37 6.15m14.71-6.46a4.93 4.93 0 0 0-5 5.15 5.05 5.05 0 0 0 5 5.18 5 5 0 0 0 5-5.13 5.08 5.08 0 0 0-5.08-5.2m0 12.1a6.92 6.92 0 1 1 7.17-6.95 7 7 0 0 1-7.17 6.95m9.58.93h1.87V55.21h-1.87v14.04zm7.69 0h-2.07V55.51h2.07v2.39a5.29 5.29 0 0 1 4.76-2.69c3.37 0 5.33 2.24 5.33 5.51v8.53h-2.07v-8c0-2.55-1.4-4.15-3.85-4.15a4.07 4.07 0 0 0-4.17 4.31zm15.04-4.07c0 1.65.94 2.25 2.34 2.25a4.47 4.47 0 0 0 2-.47v1.72a5.42 5.42 0 0 1-2.5.57c-2.24 0-3.93-1.07-3.93-3.81v-8.13h-1.94v-1.77h1.94v-4.07h2.07v4.07H161v1.77h-4.41zm6.61-8.2v-1.77H175v1.33l-9.34 10.95H175v1.76h-12.17v-1.33l9.32-10.94h-8.99zm-23.72-7.38a3.75 3.75 0 1 1-3.74-3.74 3.74 3.74 0 0 1 3.74 3.74m-58.96-.94a3.75 3.75 0 1 1-3.74-3.74 3.74 3.74 0 0 1 3.74 3.74m20.59-14.97a6.55 6.55 0 1 1-6.55-6.55 6.55 6.55 0 0 1 6.55 6.55m-27.14-9.36a3.75 3.75 0 1 1-3.74-3.74 3.74 3.74 0 0 1 3.74 3.74M93.58 3.74A3.74 3.74 0 1 1 89.84 0a3.74 3.74 0 0 1 3.74 3.74m29.01 12.17a3.74 3.74 0 1 1-3.74-3.74 3.73 3.73 0 0 1 3.74 3.74" fill-rule="evenodd"/><path fill-rule="evenodd" d="M93.12 26.2L89.84 7.57l.46-.08 3.28 18.63-.46.08zm7.3 2.81l-.29-.37 15.62-10.86.29.38-15.62 10.85zm30.42 18.72l-29.77-11.74.18-.43 29.77 11.73-.18.44zm-50.98-1.87l-.31-.36 9.98-8.07.31.36-9.98 8.07zm8.88-14.04l-14.81-5.16.16-.46 14.81 5.16-.16.46z"/></symbol></svg>