<svg xmlns="http://www.w3.org/2000/svg" viewBox="0 0 175 70"><polygon points="0 69.25 175 69.25 175 0 0 0 0 69.25" style="fill:none"/><path d="M9.25,69.25C3.93,69.25,0,65,0,59.54s3.9-9.76,9.33-9.76a9.51,9.51,0,0,1,7.19,3L15.1,54.32a8,8,0,0,0-5.8-2.58c-4.08,0-7.14,3.36-7.14,7.75s3.08,7.8,7.14,7.8a8,8,0,0,0,6-2.72l1.37,1.37a9.53,9.53,0,0,1-7.38,3.31" style="fill:#fff;fill-rule:evenodd"/><path d="M24.65,56.22a4.86,4.86,0,0,0-4.84,5.15,5,5,0,0,0,4.89,5.18,4.88,4.88,0,0,0,4.87-5.13,5,5,0,0,0-4.92-5.2m0,12.1a6.92,6.92,0,1,1,6.94-6.95,6.88,6.88,0,0,1-6.94,6.95" style="fill:#fff;fill-rule:evenodd"/><path d="M36.7,69.25H34.63V55.51H36.7V57.9a5.28,5.28,0,0,1,4.76-2.69c3.37,0,5.33,2.24,5.33,5.51v8.53H44.72v-8c0-2.55-1.4-4.15-3.85-4.15a4.07,4.07,0,0,0-4.17,4.31Z" style="fill:#fff;fill-rule:evenodd"/><path d="M50.74,69.25H48.66V55.51h2.08V57.9a5.26,5.26,0,0,1,4.76-2.69c3.36,0,5.33,2.24,5.33,5.51v8.53H58.76v-8c0-2.55-1.4-4.15-3.85-4.15a4.07,4.07,0,0,0-4.17,4.31Z" style="fill:#fff;fill-rule:evenodd"/><path d="M73.54,60.66c-.2-2.41-1.59-4.51-4.22-4.51-2.31,0-4,1.92-4.31,4.51ZM69.68,66.6a5.48,5.48,0,0,0,4.17-1.87l1.23,1.1a6.83,6.83,0,0,1-5.46,2.49A6.6,6.6,0,0,1,63,61.4c0-3.84,2.69-6.92,6.36-6.92,3.92,0,6.17,3.13,6.17,7,0,.18,0,.39,0,.62H65A4.64,4.64,0,0,0,69.68,66.6Z" style="fill:#fff;fill-rule:evenodd"/><path d="M85.11,68.32a6.92,6.92,0,1,1,0-13.84,7.18,7.18,0,0,1,5.5,2.36l-1.35,1.38a5.65,5.65,0,0,0-4.18-2,5,5,0,0,0-4.91,5.15,5,5,0,0,0,5,5.18,5.78,5.78,0,0,0,4.2-2l1.3,1.17a7.17,7.17,0,0,1-5.61,2.57" style="fill:#fff;fill-rule:evenodd"/><path d="M95.72,65.18c0,1.65.94,2.25,2.34,2.25a4.47,4.47,0,0,0,2-.47v1.72a5.42,5.42,0,0,1-2.5.57c-2.24,0-3.93-1.07-3.93-3.81V57.31H91.71V55.54h1.94V51.47h2.07v4.07h4.41v1.77H95.72Z" style="fill:#fff;fill-rule:evenodd"/><path d="M109.8,52.49h-4.74v8.23h4.63c3.11,0,5.15-1.66,5.15-4.14,0-2.7-2-4.09-5-4.09m-.19,10.16h-4.55v6.6h-2.12V50.53h7c4.23,0,7,2.25,7,6,0,4.06-3.38,6.15-7.37,6.15" style="fill:#fff;fill-rule:evenodd"/><path d="M124.32,56.22a4.93,4.93,0,0,0-5,5.15,5.05,5.05,0,0,0,5,5.18,5,5,0,0,0,5-5.13,5.08,5.08,0,0,0-5.08-5.2m0,12.1a6.92,6.92,0,1,1,7.17-6.95,7,7,0,0,1-7.17,6.95" style="fill:#fff;fill-rule:evenodd"/><polygon points="133.82 69.25 135.69 69.25 135.69 55.21 133.82 55.21 133.82 69.25" style="fill:#fff;fill-rule:evenodd"/><path d="M141.51,69.25h-2.07V55.51h2.07V57.9a5.29,5.29,0,0,1,4.76-2.69c3.37,0,5.33,2.24,5.33,5.51v8.53h-2.07v-8c0-2.55-1.4-4.15-3.85-4.15a4.07,4.07,0,0,0-4.17,4.31Z" style="fill:#fff;fill-rule:evenodd"/><path d="M156.55,65.18c0,1.65.94,2.25,2.34,2.25a4.47,4.47,0,0,0,2-.47v1.72a5.42,5.42,0,0,1-2.5.57c-2.24,0-3.93-1.07-3.93-3.81V57.31h-1.94V55.54h1.94V51.47h2.07v4.07H161v1.77h-4.41Z" style="fill:#fff;fill-rule:evenodd"/><polygon points="163.16 56.98 163.16 55.21 175 55.21 175 56.54 165.66 67.49 175 67.49 175 69.25 162.83 69.25 162.83 67.92 172.15 56.98 163.16 56.98" style="fill:#fff;fill-rule:evenodd"/><path d="M139.44,49.6a3.75,3.75,0,1,1-3.74-3.74,3.74,3.74,0,0,1,3.74,3.74" style="fill:#fff;fill-rule:evenodd"/><path d="M80.48,48.66a3.75,3.75,0,1,1-3.74-3.74,3.74,3.74,0,0,1,3.74,3.74" style="fill:#fff;fill-rule:evenodd"/><path d="M101.07,33.69a6.55,6.55,0,1,1-6.55-6.55,6.55,6.55,0,0,1,6.55,6.55" style="fill:#fff;fill-rule:evenodd"/><path d="M73.93,24.33a3.75,3.75,0,1,1-3.74-3.74,3.74,3.74,0,0,1,3.74,3.74" style="fill:#fff;fill-rule:evenodd"/><path d="M93.58,3.74A3.74,3.74,0,1,1,89.84,0a3.74,3.74,0,0,1,3.74,3.74" style="fill:#fff;fill-rule:evenodd"/><path d="M122.59,15.91a3.74,3.74,0,1,1-3.74-3.74,3.73,3.73,0,0,1,3.74,3.74" style="fill:#fff;fill-rule:evenodd"/><polygon points="93.12 26.2 89.84 7.57 90.3 7.49 93.58 26.12 93.12 26.2" style="fill:#fff;fill-rule:evenodd"/><polygon points="100.42 29.01 100.13 28.64 115.75 17.78 116.04 18.16 100.42 29.01" style="fill:#fff;fill-rule:evenodd"/><polygon points="130.84 47.73 101.07 35.99 101.25 35.56 131.02 47.29 130.84 47.73" style="fill:#fff;fill-rule:evenodd"/><polygon points="79.86 45.86 79.55 45.5 89.53 37.43 89.84 37.79 79.86 45.86" style="fill:#fff;fill-rule:evenodd"/><polygon points="88.74 31.82 73.93 26.66 74.09 26.2 88.9 31.36 88.74 31.82" style="fill:#fff;fill-rule:evenodd"/></svg>